  <svg
      width="49"
      height="40"
      viewBox="0 0 49 40"
      fill="none"
      xmlns="http://www.w3.org/2000/svg"
    >
      <path
        d="M44.949 39.9756H36.2173C35.2347 39.9756 34.293 39.5888 33.5979 38.8991L1.08481 6.636C0.389769 5.9463 0 5.01183 0 4.03678V3.6757C0 1.64581 1.65857 0 3.70418 0H13.9036C15.9492 0 17.6078 1.64581 17.6078 3.6757V17.2385C17.6078 19.2683 19.2664 20.9142 21.312 20.9142H33.1482C34.1308 20.9142 35.0725 21.3009 35.7675 21.9906L47.5683 33.7007C49.9028 36.0159 48.2497 39.9756 44.949 39.9756Z"
        fill="#091F36"
      />
      <path
        d="M11.8085 39.9999H3.76777C1.70853 39.9999 0.0390625 38.3433 0.0390625 36.2999V28.321C0.0390625 25.024 4.05669 23.3727 6.40485 25.7042L14.4456 33.6831C16.7951 36.0132 15.1311 39.9999 11.8085 39.9999Z"
        fill="#E22A34"
      />
    </svg>